<mxfile host="65bd71144e">
    <diagram id="GokJhYw6TXivc19heREo" name="Page-1">
        <mxGraphModel dx="594" dy="561" grid="1" gridSize="10" guides="1" tooltips="1" connect="1" arrows="1" fold="1" page="1" pageScale="1" pageWidth="850" pageHeight="1100" math="0" shadow="0">
            <root>
                <mxCell id="0"/>
                <mxCell id="1" parent="0"/>
                <mxCell id="2" value="" style="verticalLabelPosition=bottom;verticalAlign=top;html=1;shape=mxgraph.basic.rect;fillColor2=none;strokeWidth=1;size=20;indent=5;" parent="1" vertex="1">
                    <mxGeometry x="40" y="40" width="560" height="520" as="geometry"/>
                </mxCell>
                <mxCell id="3" value="Volume of a sphere, with JS!" style="text;html=1;align=center;verticalAlign=middle;resizable=0;points=[];autosize=1;strokeColor=none;fillColor=none;fontSize=22;fontFamily=Georgia;" parent="1" vertex="1">
                    <mxGeometry x="60" y="60" width="290" height="30" as="geometry"/>
                </mxCell>
                <mxCell id="4" value="&lt;font style=&quot;font-size: 30px;&quot;&gt;V = 4/3&amp;nbsp;&lt;span style=&quot;text-align: left; font-size: 30px;&quot;&gt;Ï€&amp;nbsp; r&lt;sup style=&quot;font-size: 30px;&quot;&gt;3&lt;/sup&gt;&lt;/span&gt;&lt;/font&gt;" style="text;html=1;align=center;verticalAlign=middle;resizable=0;points=[];autosize=1;strokeColor=none;fillColor=none;fontSize=30;fontFamily=Georgia;fontColor=#000000;" parent="1" vertex="1">
                    <mxGeometry x="60" y="100" width="190" height="50" as="geometry"/>
                </mxCell>
                <mxCell id="5" value="&lt;font style=&quot;font-size: 15px&quot;&gt;Input radius...&lt;/font&gt;" style="text;html=1;align=center;verticalAlign=middle;resizable=0;points=[];autosize=1;strokeColor=none;fillColor=none;fontSize=30;fontFamily=Georgia;fontColor=#000000;" parent="1" vertex="1">
                    <mxGeometry x="60" y="170" width="110" height="50" as="geometry"/>
                </mxCell>
                <mxCell id="6" value="" style="shape=partialRectangle;whiteSpace=wrap;html=1;top=0;left=0;fillColor=none;labelBackgroundColor=none;fontFamily=Georgia;fontSize=15;fontColor=#FFFFFF;" parent="1" vertex="1">
                    <mxGeometry x="170" y="190" width="120" height="20" as="geometry"/>
                </mxCell>
                <mxCell id="7" value="Calculate Volume" style="labelPosition=center;verticalLabelPosition=middle;align=center;html=1;shape=mxgraph.basic.shaded_button;dx=10;fillColor=#E6E6E6;strokeColor=none;labelBackgroundColor=none;fontFamily=Georgia;fontSize=15;fontColor=#000000;" parent="1" vertex="1">
                    <mxGeometry x="60" y="230" width="150" height="60" as="geometry"/>
                </mxCell>
            </root>
        </mxGraphModel>
    </diagram>
</mxfile>